@startuml Gestire Compiti Cucina
skinparam Style strictuml
skinparam classAttributeIconSize 0
skinparam linetype polyline
skinparam linetype ortho

title DCD

namespace KitchenTaskManagement {
    ' GRASP Controller dei Compiti
    class KitchenTaskManager{
        --<b>event sender methods</b>--
        +addReceiver(er: kitchenTaskReceiver)
        +removeReceiver(er: kitchenTaskReceiver)
        -notifySheetCreate(s: SummarySheet)
        -notifyAddExtraDuty(kd: KitchenDuty, task: Task)
        -notifyDeleteExtraDuty(kd: KitchenDuty)
        -notifyEditTask(t: Task)
        -notifyCreatedKitchenJob(j: KitchenJob)
        -notifyDeletedKitchenJob(j: KitchenJob)
        -notifyEditKitchenJob(j: KitchenJob)
        --<b>operation methods</b>--
        + createSummarySheet(event: Event, service: Service): SummarySheet
        + addExtraDuty(kd: KitchenDuty): Task
        + deleteExtraDuty(kd: KitchenDuty): SummarySheet
        + createKitchenJob(task: Task, turn: KitchenTurn, amount: int, estimatedDuration: int): KitchenJob
        + deleteKitchenJob(task: Task, job: KitchenJob): Task
        + assignCook(job: KitchenJob, user: User): KitchenJob
    }

    class "KitchenTaskEventReceiver \n {interface}" as KitchenTaskReceiver{
        --
        +<i>updateSheetCreate(s: SummarySheet)</i>
        +<i>updateAddExtraDuty(kd: KitchenDuty, task: Task)</i>
        +<i>updateDeleteExtraDuty(kd: KitchenDuty, task: Task)</i>
        +<i>updateEditTask(t: Task)</i>
        +<i>updateCreatedKitchenJob(j: KitchenJob)</i>
        +<i>updateDeletedKitchenJob(j: KitchenJob)</i>
        +<i>updateEditKitchenJob(j: KitchenJob)</i>
    }

    ' Compito
    class Task{
        - amount: int
        - estimatedDuration: int
        - toDo: boolean
        --
        + create(kitchenDuty: KitchenDuty)
        + editDetails(newAmount: int, newDuration: int, newToDo: boolean)
        + addKitchenJob(cook: Cook, turn: KitchenTurn, amount: int, estimatedDuration: int)
        + deleteKitchenJob(job: KitchenJob)
        + deleteAllKitchenJobs()
    }

    ' Foglio Riepilogativo
    class SummarySheet {
        + create(menu: Menu)
        + addExtraDuty(kd: KitchenDuty): Task
        + deleteExtraDuty(kd: KitchenDuty)
        + deleteAllTasks()
    }

    ' Incarico
    class KitchenJob {
        - amount: int
        - estimatedDuration: int
        --
        + create(turn: KitchenTurn, amount: int, estimatedDuration: int)
        + edit(amount: int, estimatedDuration: int)
        + assignCook(user: User)
    }

    KitchenTaskManager ---> "0..1" SummarySheet: currentSheet
    KitchenTaskManager -> "0..n" KitchenTaskReceiver: eventReceivers
    SummarySheet --> "1..n" Task: tasks
    Task --> "0..n" KitchenJob: jobs
'    todo 4
    SummarySheet --> "0..n" RecipeManagement.KitchenDuty: extraDuties
    Task -left-> "1" RecipeManagement.KitchenDuty: duty
    KitchenJob --> "0..1"  UserManagement.User: cook
    KitchenJob --> "1" TurnManagement.KitchenTurn: turn
}

namespace TurnManagement {
    ' Turno di Cucina
    class KitchenTurn {
        - startDate: LocalDate
        - endDate: LocalDate
        - complete: boolean
        --
        + freeTime(user: User, durationToFree: int)
        + takeTime(user: User, durationToTake: int)
        + getDuration(): int
        + hasUserEnoughTime(user: User, duration: int): boolean
    }

    ' Classe utilitaria suggerita dalle Prof; questa diventerà parte di una HashMap
    class TimeKeeper {
        - usedTime: int
        --
        + create(user: User, startDuration: int)
    }

    class ServiceTurn

    class Turn{
        - day: LocalDate
        - startHour: Instant
        - endHour: Instant
    }

    class TurnManager

    class ServiceJob{
        -role: char
    }

    KitchenTurn -> "0..n" TimeKeeper: assignedCooks
    TurnManager -> "0..n" KitchenTurn: turns
    TurnManager -> "0..n" ServiceTurn: serviceTurns
    ServiceTurn -|> Turn
    KitchenTurn -|> Turn
    ServiceJob -> "1" ServiceTurn: turn
'    todo
    TimeKeeper -> "1" UserManagement.User: cook
    ServiceJob -> "0..n" UserManagement.User: workers
}

namespace RecipeManagement {
    ' Mansione di Cucina
    class "KitchenDuty\n{abstract}" as KitchenDuty {
        - name: String
        - instructions: String
        - resultingAmount: int
        - constantConcreteActivityTime: int
        - variableConcreteActivityTime: int
        --
        + getSubDuties(): ArrayList<KitchenDuty>
    }

    ' Ricetta
    class Recipe {
        - name
        --
        + getSubDuties(): ArrayList<KitchenDuty>
    }

    ' Preparazione
    class Preparation{

    }

    class RecipeManager{
        --<b>event sender methods</b>--
        --<b>operation methods</b>--
        + getRecipeBook(): ArrayList<Recipe>
    }

    Recipe -left|> KitchenDuty
    Recipe -up> "0..n" Preparation: subDuties
    Preparation -left|> KitchenDuty
    Preparation -> Preparation
    RecipeManager-->"0..n" Recipe: recipes
'    todo
    KitchenDuty --> "1" UserManagement.User: author
}

namespace EventManagement {
    ' Servizio
    class Service {
        - name: String
        - offsetDay: int
        - startHour: Instant
        - endHour: Instant
        - typology: String
        - place: String
        - diners: int
        - state: String
        --
        + getMenu(): Menu
        + createSummarySheet(): SummarySheet
        + clonePatches(serviceToClone: Service)
    }

    class MacroEvent {
        - name: String
        - notes: String
        - customer: String
        --
        +create(client: String, organizer: User)
        +addEvent(startDate: LocalDate): Event
        +cancel(event: Event, strategy: String): ArrayList<Event>
        +delete(event: Event, strategy: String): ArrayList<Event>
        +changeFrequency(baseEvent: Event, frequency: EventFrequency, editFrom: LocalDate): Pair<ArrayList<Event>,ArrayList<Event>>
    }

    class "EventEventReceivers \n {interface}" as EventEventReceivers{
        +<i>updateCreateEvent(ev: Event)</i>
        +<i>updateCancelEvent(ev: Event)</i>
        +<i>updateEditEvent(ev: Event)</i>
        +<i>updateDeleteEvent(ev: Event)</i>
    }

    class EventManager{
        --<b>event sender methods</b>--
        + addReceiver(er: EventEventReceivers)
        + removeReceiver(er: EventEventReceivers)
        - notifyCreateEvent(ev: Event)
        - notifyCancelEvent(ev: Event)
        - notifyEditEvent(ev: Event)
        - notifyDeleteEvent(ev: Event)
        --<b>operation methods</b>--
        + createEvent(startDate: LocalDate, client: String): Event
        + cancelEvent(strategy: String): ArrayList<Event>
        + deleteEvent(strategy: String): ArrayList<Event>
        + editEventFrequency(baseEvent: Event, frequency: EventFrequency, editFromDate: LocalDate): Pair<ArrayList<Event>,ArrayList<Event>>
        + addService(startOffset: int, startHour: int, endHour: int, diners: int, place: String, details: String, strategy: String): ArrayList<Service>
    }

    class EventFrequency {
        --
        + getDates(macroEvent: MacroEvent, baseDate: LocalDate): ArrayList<LocalDate>
    }

    class "FrequencyGenerator\n{abstract}" as FrequencyGenerator {
        - baseFrequency: int
        --
        + <i>nextDate(from: LocalDate): LocalDate</i>
    }

    class DailyFrequencyGenerator {
        + nextDate(from: LocalDate): LocalDate
    }

    class WeeklyFrequencyGenerator {
        - weekdays: List<String>
        --
        + nextDate(from: LocalDate): LocalDate
    }

    class MonthlyFrequencyGenerator {
        + nextDate(from: LocalDate): LocalDate
    }

    class YearlyFrequencyGenerator {
        + nextDate(from: LocalDate): LocalDate
    }

    DailyFrequencyGenerator -|> FrequencyGenerator
    WeeklyFrequencyGenerator -|> FrequencyGenerator
    MonthlyFrequencyGenerator -|> FrequencyGenerator
    YearlyFrequencyGenerator -|> FrequencyGenerator

    EventFrequency -> "1" FrequencyGenerator: generator

    class "FrequencyStopCondition\n{abstract}" as FrequencyStopCondition {
        + <i>shouldContinue(macroEvent: MacroEvent, baseDate: LocalDate, newDates: ArrayList<LocalDate>): boolean</i>
    }

    class SpecificAmountStopCondition {
        - wantedOccurrencesCount: int
        --
        + shouldContinue(macroEvent: MacroEvent, baseDate: LocalDate, newDates: ArrayList<LocalDate>): boolean
    }

    class UntilDateStopCondition {
        - endDate: LocalDate
        --
        + shouldContinue(macroEvent: MacroEvent, baseDate: LocalDate, newDates: ArrayList<LocalDate>): boolean
    }

    SpecificAmountStopCondition -|> FrequencyStopCondition
    UntilDateStopCondition -|> FrequencyStopCondition

    EventFrequency -> "1" FrequencyStopCondition: stopCondition

    class Patch

    class AdditionPatch

    class RemovalPatch

    ' Evento
    class Event {
        - state: String
        - dateStart: LocalDate
        --
        + create(startDate: LocalDate)
        + cancel(): Event
        + delete(): Event
        + isActive(): boolean
        + containsService(s:Service): boolean
        + addService(name: String, startOffset: int, startHour: int, endHour: int, diners: int, place: String, details: String): Service
        + cloneService(serviceToClone: Service)
    }

    Event --> "1..n" Service: "services"
    RemovalPatch -|> Patch
    AdditionPatch -|> Patch
    Service ->  "0..n" Patch: patches
    MacroEvent --> "0..1" EventFrequency: frequency
    MacroEvent -> "1..n" Event: events
    Event -> "1" MacroEvent: macroEvent
    EventManager -> "0..n" EventEventReceivers: eventReceivers
'    todo
    Event -left> "0..1" UserManagement.User: "assignedChef"
    Service -up> "0..1" MenuManagement.Menu: menu
    AdditionPatch --> "1" RecipeManagement.kitchenDuty: duty
    RemovalPatch -> "1" MenuManagement.MenuItem : menuItem
    Service -> "0..n" TurnManagement.ServiceJob: serviceJobs
    MacroEvent -> "1" UserManagement.User: organizer
    Service -> "0..1" KitchenTaskManagement.SummarySheet: sheet
}

namespace UserManagement {
    ' Utente
    class User {
        + isChef(): boolean
        + isCook(): boolean
        + isOrganizer(): boolean
    }

    class UserManager {
        --<b>event sender methods</b>--
        --<b>operation methods</b>--
        + getCurrentUser(): User
    }

    UserManager -> "0..1" User: currentUser
}

namespace MenuManagement {
    class Menu{
        - title: String
        - published: boolean
        - inUse: boolean
        - features: String[]
        - featureValues: boolean[]
        --
        + create(owner: User, title: String, features: String[])
        + addSection(name: String)
        + addItem(r: Recipe, sec?: Section, desc?: String)
        + isOwner(user: User): boolean
        + isinUse(): boolean
        + hasSection(sec: Section): boolean
        + sectionsSize(): int
        + moveSection(sec: Section, pos: int)
    }

    ' Sezione
    class Section{
        - name: String
        --
        + create(name: String)
        + create(sec: Section)
        + addItem(mi: MenuItem)
    }

    ' Voce (del menù)
    class MenuItem{
        - description: String
        --
        + create(rec: Recipe, desc?: String)
        + create(mi: MenuItem)
    }

    class "MenuEventReceiver \n {interface}" as MenuEventReceiver{
        --
        +//updateSectionAdded(m: Menu, sec: Section)//
        +//updateMenuItemAdded(m: Menu, mi:MenuItem)//
        +//updateMenuCreated(m: Menu)//
        +//updateMenuDeleted(m: Menu)//
        +//updateSectionsRearranged(m: Menu)//
    }

    class MenuManager{
        - menuFeatures: String[]
        --<b>event sender methods</b>--
        + addReceiver(er: MenuEventReceiver)
        + removeReceiver(er: MenuEventReceiver)
        - notifySectionAdded(sec: Section)
        - notifyMenuItemAdded(mi: MenuItem)
        - notifyMenuCreated(m: Menu)
        - notifyMenuDeleted(m: Menu)
        - notifySectionsRearranged(m: Menu)
        --<b>operation methods</b>--
        + defineSection(name: String)
        + insertItem(r: Recipe, sec?: Section, desc?: String)
        + createMenu(title: String): Menu
        + getRecipeBook():ArrayList<Recipe>
    }

    MenuManager ->"0..n" MenuEventReceiver: eventReceivers
    MenuManager--left> "0..1" Menu: currentMenu
    Section -left> "0..n" MenuItem: sectionItems
    Menu -> "0..n" Section: sections
    Menu -> "0..n" MenuItem: freeItems
    Menu -> "1" UserManagement.User: owner
    MenuItem -> "1" RecipeManagement.Recipe: itemRecipe
}

namespace GeneralModule {
    UseCaseLogicException --|> Exception
    EventException --|> Exception
}
@enduml